<?xml version="1.0" encoding="UTF-8" standalone="no"?>
<!DOCTYPE svg PUBLIC "-//W3C//DTD SVG 1.1//EN" "http://www.w3.org/Graphics/SVG/1.1/DTD/svg11.dtd">
<!-- Generated by Microsoft Visio, SVG Export im-module.svg Page-1 -->
<svg xmlns="http://www.w3.org/2000/svg" xmlns:xlink="http://www.w3.org/1999/xlink" xmlns:ev="http://www.w3.org/2001/xml-events"
		width="7.88883in" height="2.79313in" viewBox="0 0 567.996 201.105" xml:space="preserve" color-interpolation-filters="sRGB"
		class="st14">
	<style type="text/css">
	<![CDATA[
		.st1 {marker-end:url(#mrkr4-6);stroke:#000000;stroke-linecap:round;stroke-linejoin:round;stroke-width:1}
		.st2 {fill:#000000;fill-opacity:1;stroke:#000000;stroke-opacity:1;stroke-width:0.28409090909091}
		.st3 {fill:#bfbfbf;stroke:#c7c8c8;stroke-width:0.25}
		.st4 {fill:#000000;font-family:Calibri;font-size:1.00001em;font-weight:bold}
		.st5 {fill:#dae2f3;stroke:#c7c8c8;stroke-width:0.25}
		.st6 {fill:#4672c4;stroke:#c7c8c8;stroke-width:0.25}
		.st7 {fill:#feffff;font-family:Calibri;font-size:1.00001em}
		.st8 {fill:#a5a5a5;stroke:#000000;stroke-width:0.5}
		.st9 {fill:#d8d8d8;stroke:#000000;stroke-width:0.5}
		.st10 {fill:#000000;font-family:Calibri;font-size:0.833336em;font-weight:bold}
		.st11 {fill:#7f7f7f;stroke:#c7c8c8;stroke-width:0.25}
		.st12 {fill:#3f3f3f;stroke:#000000;stroke-width:0.5}
		.st13 {fill:#3f3f3f;stroke:#c7c8c8;stroke-width:0.25}
		.st14 {fill:none;fill-rule:evenodd;font-size:12px;overflow:visible;stroke-linecap:square;stroke-miterlimit:3}
	]]>
	</style>

	<defs id="Markers">
		<g id="lend4">
			<path d="M 2 1 L 0 0 L 2 -1 L 2 1 " style="stroke:none"/>
		</g>
		<marker id="mrkr4-6" class="st2" refX="-7.04" orient="auto" markerUnits="strokeWidth" overflow="visible">
			<use xlink:href="#lend4" transform="scale(-3.52,-3.52) "/>
		</marker>
	</defs>
	<g>
		<title>Page-1</title>
		<g id="shape24-1" transform="translate(223.844,-116.125)">
			<title>Dynamic connector.24</title>
			<path d="M0 192.11 L29.66 192.11" class="st1"/>
		</g>
		<g id="shape1-7" transform="translate(0.25,-43)">
			<title>Sheet.1</title>
			<desc>Information Model</desc>
			<rect x="0" y="88.6053" width="223.594" height="112.5" class="st3"/>
			<text x="64.34" y="103.41" class="st4">Information Model</text>		</g>
		<g id="shape7-10" transform="translate(260.547,-0.25)">
			<title>Sheet.7</title>
			<desc>Metaschema Module</desc>
			<rect x="0" y="0.500006" width="307.199" height="200.605" class="st5"/>
			<text x="100.55" y="15.3" class="st4">Metaschema Module</text>		</g>
		<g id="shape10-13" transform="translate(290.697,-12.9062)">
			<title>Sheet.10</title>
			<desc>Definitions</desc>
			<rect x="0" y="42.7615" width="247.5" height="158.344" class="st6"/>
			<text x="97.29" y="57.56" class="st7">Definitions</text>		</g>
		<g id="shape18-16" transform="translate(418.047,-67.9704)">
			<title>Dynamic connector.18</title>
			<path d="M9 201.11 L9 168.08" class="st1"/>
		</g>
		<g id="shape33-21" transform="translate(301.647,-23.875)">
			<title>Sheet.33</title>
			<desc>Assembly Definition</desc>
			<rect x="0" y="76.2303" width="108.736" height="124.875" class="st8"/>
			<text x="4.28" y="91.03" class="st4">Assembly Definition</text>		</g>
		<g id="shape27-24" transform="translate(304.147,-26.45)">
			<title>Rectangle</title>
			<desc>Assembly Model</desc>
			<rect x="0" y="119.305" width="103.543" height="81.8" class="st9"/>
			<text x="17.27" y="132.31" class="st10">Assembly Model</text>		</g>
		<g id="shape30-27" transform="translate(306.547,-72.85)">
			<title>Sheet.30</title>
			<desc>Choice</desc>
			<rect x="0" y="181.699" width="98.3894" height="19.4063" class="st11"/>
			<text x="32.78" y="195" class="st7">Choice</text>		</g>
		<g id="shape11-30" transform="translate(417.679,-108.039)">
			<title>Sheet.11</title>
			<desc>Flag Definition</desc>
			<rect x="0" y="160.394" width="108.736" height="40.7109" class="st8"/>
			<text x="18.11" y="175.19" class="st4">Flag Definition</text>		</g>
		<g id="shape37-33" transform="translate(421.422,-110.5)">
			<title>Sheet.37</title>
			<desc>Value</desc>
			<rect x="0" y="181.699" width="101.531" height="19.4063" class="st12"/>
			<text x="36.97" y="195" class="st7">Value</text>		</g>
		<g id="shape19-36" transform="translate(402.471,-51.6219)">
			<title>Dynamic connector.19</title>
			<path d="M2.42 192.11 L8.54 192.11" class="st1"/>
		</g>
		<g id="shape12-41" transform="translate(418.047,-23.8142)">
			<title>Sheet.12</title>
			<desc>Field Definition</desc>
			<rect x="0" y="139.755" width="108.736" height="61.35" class="st8"/>
			<text x="16.2" y="154.56" class="st4">Field Definition</text>		</g>
		<g id="shape38-44" transform="translate(422.057,-48.5642)">
			<title>Sheet.38</title>
			<desc>Flag Instance</desc>
			<rect x="0" y="181.699" width="101.167" height="19.4063" class="st6"/>
			<text x="18.83" y="195" class="st7">Flag Instance</text>		</g>
		<g id="shape39-47" transform="translate(422.263,-26.3642)">
			<title>Sheet.39</title>
			<desc>Value</desc>
			<rect x="0" y="181.699" width="101.167" height="19.4063" class="st13"/>
			<text x="36.79" y="195" class="st7">Value</text>		</g>
		<g id="shape16-50" transform="translate(306.505,-50.9187)">
			<title>Sheet.16</title>
			<desc>Field Instance</desc>
			<rect x="0" y="181.699" width="98.3894" height="19.4063" class="st6"/>
			<text x="15.62" y="195" class="st7">Field Instance</text>		</g>
		<g id="shape21-53" transform="translate(402.263,-111.253)">
			<title>Dynamic connector.21</title>
			<path d="M2.58 192.11 L8.38 192.11" class="st1"/>
		</g>
		<g id="shape31-58" transform="translate(304.141,-110.55)">
			<title>Sheet.31</title>
			<desc>Flag Instance</desc>
			<rect x="0" y="181.699" width="100.706" height="19.4063" class="st6"/>
			<text x="18.6" y="195" class="st7">Flag Instance</text>		</g>
		<g id="shape20-61" transform="translate(313.076,-38.825)">
			<title>Dynamic connector.20</title>
			<path d="M-6.57 201.11 L-20.43 201.11 L-20.43 167.68 L-18.47 167.68" class="st1"/>
		</g>
		<g id="shape17-66" transform="translate(306.505,-29.1219)">
			<title>Sheet.17</title>
			<desc>Assembly Instance</desc>
			<rect x="0" y="181.699" width="98.3894" height="19.4063" class="st6"/>
			<text x="4.08" y="195" class="st7">Assembly Instance</text>		</g>
		<g id="shape23-69" transform="translate(193.75,-81.25)">
			<title>Dynamic connector.23</title>
			<path d="M0 192.11 L89.91 192.11" class="st1"/>
		</g>
		<g id="shape3-74" transform="translate(26.4062,-56.5)">
			<title>Sheet.3</title>
			<desc>Information Elements</desc>
			<rect x="0" y="133.605" width="167.344" height="67.5" class="st6"/>
			<text x="30.61" y="170.96" class="st7">Information Elements</text>		</g>
	</g>
</svg>
